<svg width="400" height="240" viewBox="0 0 400 240" xmlns="http://www.w3.org/2000/svg">
  <defs>
    <linearGradient id="grad4" x1="0%" y1="0%" x2="100%" y2="100%">
      <stop offset="0%" style="stop-color:#0ea5e9;stop-opacity:1" />
      <stop offset="100%" style="stop-color:#06b6d4;stop-opacity:1" />
    </linearGradient>
  </defs>
  <rect width="400" height="240" fill="url(#grad4)"/>
  
  <!-- Weather elements -->
  <g fill="white" opacity="0.9">
    <!-- Sun -->
    <circle cx="120" cy="80" r="20" fill="white" opacity="0.8"/>
    <g stroke="white" stroke-width="3" opacity="0.6">
      <line x1="120" y1="40" x2="120" y2="50"/>
      <line x1="120" y1="110" x2="120" y2="120"/>
      <line x1="80" y1="80" x2="90" y2="80"/>
      <line x1="150" y1="80" x2="160" y2="80"/>
      <line x1="92" y1="58" x2="99" y2="65"/>
      <line x1="141" y1="95" x2="148" y2="102"/>
      <line x1="92" y1="102" x2="99" y2="95"/>
      <line x1="141" y1="65" x2="148" y2="58"/>
    </g>
    
    <!-- Clouds -->
    <ellipse cx="280" cy="70" rx="25" ry="15" fill="white" opacity="0.7"/>
    <ellipse cx="295" cy="70" rx="20" ry="12" fill="white" opacity="0.7"/>
    <ellipse cx="270" cy="80" rx="15" ry="10" fill="white" opacity="0.7"/>
    
    <!-- Temperature display -->
    <rect x="80" y="130" width="240" height="60" rx="8" fill="white" opacity="0.2" stroke="white" stroke-width="2"/>
    <text x="200" y="155" text-anchor="middle" fill="white" font-family="Arial, sans-serif" font-size="24" font-weight="bold">25°C</text>
    <text x="200" y="175" text-anchor="middle" fill="white" font-family="Arial, sans-serif" font-size="12">Ho Chi Minh City</text>
    
    <!-- Chart elements -->
    <g stroke="white" stroke-width="2" fill="none" opacity="0.6">
      <polyline points="100,160 120,150 140,155 160,145 180,140 200,150 220,145 240,155 260,150 280,160"/>
      <circle cx="120" cy="150" r="2" fill="white"/>
      <circle cx="160" cy="145" r="2" fill="white"/>
      <circle cx="200" cy="150" r="2" fill="white"/>
      <circle cx="240" cy="155" r="2" fill="white"/>
    </g>
  </g>
  
  <!-- Title -->
  <text x="200" y="210" text-anchor="middle" fill="white" font-family="Arial, sans-serif" font-size="18" font-weight="bold">Weather Dashboard</text>
</svg>