<svg width="64" height="59" viewBox="0 0 64 59" fill="none" xmlns="http://www.w3.org/2000/svg">
<rect y="8.93066" width="5.95349" height="5.95378" rx="2.97674" fill="#1E537F"/>
<rect x="29.1721" width="5.95349" height="5.95378" rx="2.97674" fill="#1E537F"/>
<rect x="58.0466" y="8.93066" width="5.95349" height="5.95378" rx="2.97674" fill="#1E537F"/>
<path fill-rule="evenodd" clip-rule="evenodd" d="M44.5208 23.7522L32.0793 8.63297L19.634 23.7568H19.5954L2.97681 16.7482L9.22778 42.5687V42.5695L9.22799 42.5695L54.772 42.5695V42.5692L54.7721 42.5695L61.1297 16.7482L44.5208 23.7522Z" fill="#1E537F"/>
<path d="M9.52563 43.7603H18.3137L19.1718 47.3325H10.3904L9.52563 43.7603Z" fill="#1E537F"/>
<path d="M20.5396 43.7603H29.3276L30.1857 47.3325H21.4043L20.5396 43.7603Z" fill="#1E537F"/>
<path d="M10.7095 48.5233H53.2837L50.9024 58.0493H13.0364L10.7095 48.5233Z" fill="#1E537F"/>
<path d="M44.9483 43.7603H54.4743L53.5817 47.3325H44.0557L44.9483 43.7603Z" fill="#1E537F"/>
<path d="M33.3391 43.7603H42.8651L41.9725 47.3325H32.4465L33.3391 43.7603Z" fill="#1E537F"/>
<rect x="14.8838" y="51.2025" width="4.46512" height="4.46533" rx="2.23256" fill="white"/>
<rect x="22.3257" y="51.2025" width="4.46512" height="4.46533" rx="2.23256" fill="white"/>
<rect x="29.7673" y="51.2025" width="4.46512" height="4.46533" rx="2.23256" fill="white"/>
<rect x="37.2092" y="51.2025" width="4.46512" height="4.46533" rx="2.23256" fill="white"/>
<rect x="44.6511" y="51.2025" width="4.46512" height="4.46533" rx="2.23256" fill="white"/>
<path d="M31.7024 14.5867L41.6745 25.4524L43.1629 24.5593L31.8512 11.9075L26.7908 18.7544L36.614 26.9408L32.4466 29.62L23.2187 22.4755L21.4326 24.5593L32.4466 31.4062L38.8466 26.9408L28.5768 18.3078L31.7024 14.5867Z" fill="white" stroke="white"/>
</svg>
